:SAMPLES-PER-SECOND 30
:FULLY-SPECIFIED
:DEGREES
284
root  -41.9329 39.0543 -2.10011 -6.61316 87.5161 -4.61041
RightUpLeg  1.89784 -7.14993 1.80335
RightLeg  22.4222 -1.83724 -1.02807
RightFoot  -20.1782 -0.490563 -4.58082
RightToes  -3.0268e-009 0 -3.6325e-017
Spine  8.35117 1.5014 7.63256
Spine1  7.3978 3.30082 -5.22817
HEad  -15.0833 -2.38623 -3.8073
LeftShoulder1  -0.366346 4.44824 -32.6553
LeftArm  1.02384 6.73372 -39.8773
LeftForeArm  32.4996 -12.3497 -8.16122
LeftHand  -0.097715 9.37368 -1.29243
RightShoulder  -0.881458 -6.0547 27.9686
RightArm  10.802 23.5402 50.9896
RightForeArm  17.4344 49.0354 11.6279
RightHand  -0.4315 3.96441 -5.62259
LeftUpLeg  -23.4293 9.06361 -1.72923
LeftLeg  13.739 0.593678 0.155036
LeftFoot  -2.59072 0.61668 -7.86912
LeftToes  2.52475e-009 -1.26109e-010 3.16044e-011
285
root  -40.6633 38.8954 -1.98594 -20.6438 88.8543 -18.6295
RightUpLeg  4.79577 -8.20692 1.66008
RightLeg  21.2698 -2.30214 -1.11843
RightFoot  -21.4957 -0.50695 -4.06964
RightToes  -3.0268e-009 0 -3.6325e-017
Spine  7.4248 1.53643 6.96805
Spine1  8.33053 3.23901 -4.99541
HEad  -14.7052 -2.82972 -3.48531
LeftShoulder1  -0.371101 4.45858 -32.7293
LeftArm  3.01657 6.36293 -39.7254
LeftForeArm  30.4259 -13.4657 -7.93319
LeftHand  -0.120457 9.94947 -1.61221
RightShoulder  -0.84842 -5.97314 27.7619
RightArm  10.9695 23.3124 51.8277
RightForeArm  18.8232 50.6828 12.269
RightHand  -0.413448 4.35004 -5.20568
LeftUpLeg  -22.938 8.95004 -1.87428
LeftLeg  9.64807 6.85605 -0.122706
LeftFoot  -2.04731 0.628964 -7.51365
LeftToes  2.52475e-009 -1.26109e-010 3.16044e-011
286
root  -39.3225 38.6868 -1.89682 145.116 89.9938 147.355
RightUpLeg  7.81189 -8.83305 1.3626
RightLeg  20.6152 -2.82603 -1.27906
RightFoot  -22.7961 -0.478173 -3.2263
RightToes  -3.0268e-009 0 -3.6325e-017
Spine  6.89591 1.58685 6.36721
Spine1  8.77015 3.35427 -5.22649
HEad  -14.2585 -3.12666 -3.20953
LeftShoulder1  -0.39756 4.53144 -32.5529
LeftArm  6.50099 6.11917 -39.6142
LeftForeArm  27.6748 -15.4634 -7.2985
LeftHand  -0.110464 9.37583 -1.5968
RightShoulder  -0.827913 -5.90774 27.8342
RightArm  11.8641 22.6828 52.8616
RightForeArm  18.8996 50.5888 12.2238
RightHand  -0.434126 4.19559 -5.53492
LeftUpLeg  -22.6281 9.32066 -2.49892
LeftLeg  9.58558 11.186 0.114215
LeftFoot  -2.06646 0.389853 -4.93788
LeftToes  2.52475e-009 -1.26109e-010 3.16044e-011
287
root  -37.8957 38.4587 -1.80916 -179.164 88.7209 -176.938
RightUpLeg  10.4489 -10.0039 0.711505
RightLeg  20.473 -2.64666 -1.20619
RightFoot  -23.7576 -0.338194 -1.63803
RightToes  -3.0268e-009 0 -3.6325e-017
Spine  5.90208 1.81103 5.28403
Spine1  9.27753 3.5675 -5.15955
HEad  -13.6827 -3.36507 -2.96074
LeftShoulder1  -0.47763 4.74505 -32.3351
LeftArm  8.751 5.3183 -39.6007
LeftForeArm  25.9149 -16.6979 -6.79423
LeftHand  -0.0697206 8.53884 -0.83741
RightShoulder  -0.823943 -5.88827 27.9471
RightArm  13.1974 21.3564 53.9074
RightForeArm  18.2436 49.1543 11.6175
RightHand  -0.462898 4.82227 -5.56479
LeftUpLeg  -23.472 12.3181 -4.70703
LeftLeg  12.9382 10.6509 1.6045
LeftFoot  1.10001 -0.269356 2.41344
LeftToes  2.52475e-009 -1.26109e-010 3.16044e-011
288
root  -36.3931 38.1977 -1.75077 156.065 87.5525 157.988
RightUpLeg  11.8766 -10.2125 -0.397998
RightLeg  22.4618 -2.45054 -1.3487
RightFoot  -24.6522 0.00443483 1.41784
RightToes  -3.0268e-009 0 -3.6325e-017
Spine  4.74985 2.13812 4.14965
Spine1  9.44972 4.16766 -6.22795
HEad  -12.5927 -3.66195 -3.21151
LeftShoulder1  -0.502105 4.81831 -32.0546
LeftArm  10.1144 4.03207 -39.2569
LeftForeArm  24.8639 -17.8743 -6.14214
LeftHand  -0.0716024 8.32476 -1.03887
RightShoulder  -0.849715 -5.91549 28.6309
RightArm  15.2977 19.2738 54.651
RightForeArm  17.8316 46.5504 10.5705
RightHand  -0.513542 4.11202 -6.53359
LeftUpLeg  -24.9141 14.1262 -6.90385
LeftLeg  18.2984 8.08792 3.29458
LeftFoot  2.81045 -0.763879 6.10051
LeftToes  2.52475e-009 -1.26109e-010 3.16044e-011
289
root  -34.8984 37.8886 -1.67655 144.7 85.3288 146.659
RightUpLeg  11.873 -10.3177 -2.16345
RightLeg  28.2512 -2.55207 -1.70407
RightFoot  -24.6552 0.579438 6.44816
RightToes  -3.0268e-009 0 -3.6325e-017
Spine  4.55228 2.2692 2.05391
Spine1  9.01415 4.43193 -7.14255
HEad  -11.816 -3.29399 -3.5254
LeftShoulder1  -0.56447 4.98168 -32.0495
LeftArm  14.1624 2.2113 -38.5523
LeftForeArm  20.7475 -20.5822 -4.79601
LeftHand  -0.0322428 8.84698 0.484702
RightShoulder  -0.868082 -5.92004 29.3321
RightArm  17.8706 16.9725 55.8795
RightForeArm  18.0311 41.9797 8.89466
RightHand  -0.462714 4.65881 -5.64027
LeftUpLeg  -25.7638 11.358 -7.8417
LeftLeg  24.9136 8.16101 4.47195
LeftFoot  0.592944 -0.800946 7.60849
LeftToes  2.52475e-009 -1.26109e-010 3.16044e-011
290
root  -33.519 37.6662 -1.60306 143.148 82.7138 145.408
RightUpLeg  9.26363 -11.0605 -4.10625
RightLeg  38.5082 -2.50509 -2.49289
RightFoot  -20.3496 0.814103 13.0782
RightToes  -3.0268e-009 0 -3.6325e-017
Spine  5.20598 2.3792 0.510088
Spine1  8.83497 4.97717 -9.17162
HEad  -12.3517 -1.88896 -4.16299
LeftShoulder1  -0.535618 4.91241 -31.8692
LeftArm  14.583 -0.596077 -38.4381
LeftForeArm  19.7938 -23.0128 -4.20681
LeftHand  -0.0410141 7.57023 0.0608509
RightShoulder  -0.803659 -5.74675 29.2044
RightArm  20.3718 13.991 57.3895
RightForeArm  17.4866 36.4566 7.23637
RightHand  -0.378524 5.28359 -4.4161
LeftUpLeg  -25.1225 8.21337 -8.88686
LeftLeg  29.0788 9.00393 5.72401
LeftFoot  -1.58237 -0.691392 8.19194
LeftToes  2.52475e-009 -1.26109e-010 3.16044e-011
291
root  -32.2729 37.5139 -1.50833 141.246 80.6799 143.635
RightUpLeg  2.40899 -10.1591 -5.01077
RightLeg  52.8101 -2.70422 -4.1663
RightFoot  -7.25315 -0.206006 13.0826
RightToes  -3.0268e-009 0 -3.6325e-017
Spine  6.90059 2.4469 -0.49147
Spine1  7.82114 5.60116 -12.1922
HEad  -12.4911 -0.478734 -4.68579
LeftShoulder1  -0.5084 4.87698 -30.8835
LeftArm  12.3373 -2.47561 -38.5497
LeftForeArm  20.9143 -27.9564 -4.86389
LeftHand  -0.0327369 7.10061 0.327634
RightShoulder  -0.702062 -5.49495 28.5636
RightArm  25.5372 11.1703 58.937
RightForeArm  14.8801 31.282 6.02025
RightHand  -0.329001 4.67996 -4.09077
LeftUpLeg  -24.2144 6.34886 -9.84352
LeftLeg  32.0511 9.2956 6.57009
LeftFoot  -4.05931 -0.482743 7.93186
LeftToes  2.52475e-009 -1.26109e-010 3.16044e-011
292
root  -31.0781 37.218 -1.30281 144.554 77.5999 146.996
RightUpLeg  -6.01673 -10.2004 -5.4328
RightLeg  66.1616 -0.968109 -2.86105
RightFoot  7.10103 -0.650476 3.5652
RightToes  -3.0268e-009 0 -3.6325e-017
Spine  8.43274 2.1423 -2.96335
Spine1  7.54259 5.26343 -13.069
HEad  -13.1893 0.878564 -4.43919
LeftShoulder1  -0.531856 4.9519 -30.5718
LeftArm  10.0408 -5.2909 -38.4799
LeftForeArm  23.3943 -34.5402 -6.36723
LeftHand  -0.0358909 6.59293 0.050166
RightShoulder  -0.594392 -5.21398 28.0181
RightArm  30.8462 8.60625 59.5885
RightForeArm  13.6609 28.4301 5.40462
RightHand  -0.254898 2.92465 -3.77196
LeftUpLeg  -23.8102 4.44181 -10.6233
LeftLeg  35.5439 8.12037 6.55186
LeftFoot  -7.18444 -0.202869 6.71666
LeftToes  2.52475e-009 -1.26109e-010 3.16044e-011
293
root  -29.9362 36.8136 -1.02041 150.855 73.7146 153.977
RightUpLeg  -12.133 -10.5072 -5.432
RightLeg  74.6199 0.889942 2.55442
RightFoot  2.27096 -0.708626 6.06752
RightToes  -3.0268e-009 0 -3.6325e-017
Spine  10.8759 1.66454 -4.97538
Spine1  7.92383 4.66149 -13.6473
HEad  -14.505 0.789937 -3.78325
LeftShoulder1  -0.505078 4.8992 -30.043
LeftArm  8.68758 -9.08149 -39.44
LeftForeArm  26.5718 -42.4713 -8.48139
LeftHand  -0.0227559 6.58601 1.11505
RightShoulder  -0.627254 -5.26629 28.8559
RightArm  33.6853 5.84357 57.893
RightForeArm  13.5511 28.706 5.48123
RightHand  -0.205973 2.67984 -3.17623
LeftUpLeg  -23.291 2.14147 -10.528
LeftLeg  39.7718 6.24951 5.93543
LeftFoot  -10.6303 0.0317886 5.16478
LeftToes  2.52475e-009 -1.26109e-010 3.16044e-011
294
root  -28.8695 36.4046 -0.666317 156.229 70.1288 160.006
RightUpLeg  -18.8351 -9.7211 -5.05325
RightLeg  78.9066 1.28509 5.98714
RightFoot  -0.0744333 -0.75253 7.58571
RightToes  -3.0268e-009 0 -3.6325e-017
Spine  14.2362 1.61008 -6.36172
Spine1  7.93015 4.21601 -13.3626
HEad  -16.0064 -0.685128 -3.10971
LeftShoulder1  -0.516931 4.93161 -30.0506
LeftArm  8.26386 -13.6282 -41.5245
LeftForeArm  30.675 -50.6602 -11.3243
LeftHand  -0.0250475 6.19042 1.10954
RightShoulder  -0.674812 -5.38831 29.1069
RightArm  31.8336 1.69647 55.4679
RightForeArm  13.9548 31.1337 6.04483
RightHand  -0.2585 3.75847 -3.54337
LeftUpLeg  -23.0489 0.478379 -9.4512
LeftLeg  43.8004 4.15136 4.67339
LeftFoot  -14.0191 0.181556 4.08147
LeftToes  2.52475e-009 -1.26109e-010 3.16044e-011
